<?xml version="1.0" encoding="UTF-8"?><svg id="Calque_2" xmlns="http://www.w3.org/2000/svg" viewBox="0 0 257.91 79.55"><defs><style>.cls-1{fill:#030102;}.cls-2{fill:#fff;}.cls-3{fill:#fafafa;}.cls-4{fill:#e30613;}.cls-5{fill:#0a0405;}.cls-6{fill:#384898;}.cls-7{fill:#384798;}</style></defs><g id="Calque_1-2"><g><path class="cls-5" d="M22.63,59.88c-5.43,3.01-12.04,1.9-16.21-2.32-.99-1-2.51-1.26-3.76-.6l-1.63,.86c-.93,.49-1.31,1.65-.82,2.59,0,0,0,.01,0,.02,5.42,10.23,18.11,14.13,28.34,8.7,10.23-5.42,14.13-18.11,8.7-28.34,0,0,0-.01,0-.02-.5-.93-1.67-1.27-2.6-.78l-4.53,2.4c-.79,.42-1.19,1.33-.96,2.2,1.54,5.85-1.01,12.21-6.54,15.28Z"/><path class="cls-5" d="M18.3,17.83c5.68-3.15,12.65-1.78,16.76,2.92,.59,.68,1.58,.86,2.38,.43l2.45-1.3c.93-.49,1.31-1.65,.82-2.59,0,0,0-.01,0-.02C35.28,7.05,22.59,3.15,12.36,8.58,2.13,14-1.77,26.69,3.66,36.92c0,0,0,.01,0,.02,.5,.93,1.67,1.27,2.6,.78l4.52-2.4c.8-.42,1.2-1.34,.97-2.22-1.53-5.84,1.01-12.2,6.54-15.26Z"/><g><g><circle class="cls-4" cx="18.87" cy="28.8" r="3.96"/><circle class="cls-4" cx="28.33" cy="24.36" r="3.96"/></g><g><rect class="cls-4" x="9.01" y="47.79" width="17.06" height="3.83" rx="1.72" ry="1.72" transform="translate(35.08 99.4) rotate(-180)"/><rect class="cls-4" x="15.46" y="40.79" width="4.16" height="17.72" rx="1.87" ry="1.87" transform="translate(35.08 99.29) rotate(-180)"/></g></g></g><g><path class="cls-5" d="M239.61,59.88c-5.43,3.01-12.04,1.9-16.21-2.32-.99-1-2.51-1.26-3.76-.6l-1.63,.86c-.93,.49-1.31,1.65-.82,2.59,0,0,0,.01,0,.02,5.42,10.23,18.11,14.13,28.34,8.7,10.23-5.42,14.13-18.11,8.7-28.34,0,0,0-.01,0-.02-.5-.93-1.67-1.27-2.6-.78l-4.53,2.4c-.79,.42-1.19,1.33-.96,2.2,1.54,5.85-1.01,12.21-6.54,15.28Z"/><path class="cls-5" d="M235.28,17.83c5.68-3.15,12.65-1.78,16.76,2.92,.59,.68,1.58,.86,2.38,.43l2.45-1.3c.93-.49,1.31-1.65,.82-2.59,0,0,0-.01,0-.02-5.42-10.23-18.11-14.13-28.34-8.7-10.23,5.42-14.13,18.11-8.7,28.34,0,0,0,.01,0,.02,.5,.93,1.67,1.27,2.6,.78l4.52-2.4c.8-.42,1.2-1.34,.97-2.22-1.53-5.84,1.01-12.2,6.54-15.26Z"/><g><g><circle class="cls-6" cx="235.85" cy="28.8" r="3.96"/><circle class="cls-6" cx="245.31" cy="24.36" r="3.96"/></g><g><rect class="cls-6" x="226" y="47.79" width="17.06" height="3.83" rx="1.72" ry="1.72" transform="translate(469.05 99.4) rotate(-180)"/><rect class="cls-6" x="232.45" y="40.79" width="4.16" height="17.72" rx="1.87" ry="1.87" transform="translate(469.05 99.29) rotate(-180)"/></g></g></g><g><rect class="cls-1" x="73.21" width="46.45" height="79.55"/><g><path class="cls-3" d="M99.21,58.96c-5.43,3.01-12.04,1.9-16.21-2.32-.99-1-2.51-1.26-3.76-.6l-1.63,.86c-.93,.49-1.31,1.65-.82,2.59,0,0,0,.01,0,.02,5.42,10.23,18.11,14.13,28.34,8.7,10.23-5.42,14.13-18.11,8.7-28.34,0,0,0-.01,0-.02-.5-.93-1.67-1.27-2.6-.78l-4.53,2.4c-.79,.42-1.19,1.33-.96,2.2,1.54,5.85-1.01,12.21-6.54,15.28Z"/><path class="cls-2" d="M94.88,16.91c5.68-3.15,12.65-1.78,16.76,2.92,.59,.68,1.58,.86,2.38,.43l2.45-1.3c.93-.49,1.31-1.65,.82-2.59,0,0,0-.01,0-.02-5.42-10.23-18.11-14.13-28.34-8.7-10.23,5.42-14.13,18.11-8.7,28.34,0,0,0,.01,0,.02,.5,.93,1.67,1.27,2.6,.78l4.52-2.4c.8-.42,1.2-1.34,.97-2.22-1.53-5.84,1.01-12.2,6.54-15.26Z"/><g><g><circle class="cls-4" cx="95.45" cy="27.89" r="3.96"/><circle class="cls-4" cx="104.91" cy="23.45" r="3.96"/></g><g><rect class="cls-4" x="85.59" y="46.87" width="17.06" height="3.83" rx="1.72" ry="1.72" transform="translate(188.24 97.56) rotate(-180)"/><rect class="cls-4" x="92.04" y="39.87" width="4.16" height="17.72" rx="1.87" ry="1.87" transform="translate(188.24 97.45) rotate(-180)"/></g></g></g></g><rect class="cls-1" x="147.27" width="46.45" height="79.55"/><g><path class="cls-3" d="M173.26,58.96c-5.43,3.01-12.04,1.9-16.21-2.32-.99-1-2.51-1.26-3.76-.6l-1.63,.86c-.93,.49-1.31,1.65-.82,2.59,0,0,0,.01,0,.02,5.42,10.23,18.11,14.13,28.34,8.7,10.23-5.42,14.13-18.11,8.7-28.34,0,0,0-.01,0-.02-.5-.93-1.67-1.27-2.6-.78l-4.53,2.4c-.79,.42-1.19,1.33-.96,2.2,1.54,5.85-1.01,12.21-6.54,15.28Z"/><path class="cls-2" d="M168.93,16.91c5.68-3.15,12.65-1.78,16.76,2.92,.59,.68,1.58,.86,2.38,.43l2.45-1.3c.93-.49,1.31-1.65,.82-2.59,0,0,0-.01,0-.02-5.42-10.23-18.11-14.13-28.34-8.7-10.23,5.42-14.13,18.11-8.7,28.34,0,0,0,.01,0,.02,.5,.93,1.67,1.27,2.6,.78l4.52-2.4c.8-.42,1.2-1.34,.97-2.22-1.53-5.84,1.01-12.2,6.54-15.26Z"/><g><circle class="cls-6" cx="169.5" cy="27.89" r="3.96"/><circle class="cls-7" cx="178.96" cy="23.45" r="3.96"/><g><rect class="cls-6" x="159.65" y="46.87" width="17.06" height="3.83" rx="1.72" ry="1.72" transform="translate(336.35 97.56) rotate(-180)"/><rect class="cls-6" x="166.1" y="39.87" width="4.16" height="17.72" rx="1.87" ry="1.87" transform="translate(336.35 97.45) rotate(-180)"/></g></g></g></g></svg>